<svg xmlns="http://www.w3.org/2000/svg" viewBox="0 0 64 64" role="img" aria-labelledby="faviconTitle">
  <title id="faviconTitle">Mach13 icon</title>
  <rect width="64" height="64" rx="14" fill="#0A2540" />
  <path
    fill="#F4F6FC"
    d="M10 46V18h9.2l8 14 8-14H44v28h-8v-16l-8 11.4L20 30v16H10zm31 0V27.6l-3.6 3V24l7.8-6h8V46H41zm11 0v-6h6.6c2.6 0 3.8-1 3.8-2.8 0-1.8-1.2-2.8-3.8-2.8h-5.6v-6h5.8c2.4 0 3.6-1 3.6-2.8s-1.2-2.8-3.6-2.8H52V18h9c6 0 9 2.8 9 7.2 0 2.8-1.4 4.8-4 6 3 1.2 4.6 3.6 4.6 6.8 0 4.6-3.4 8-9.4 8H52z"
  />
</svg>
