<svg xmlns="http://www.w3.org/2000/svg" viewBox="0 0 120 120" role="img" aria-labelledby="logoTitle">
  <title id="logoTitle">Mach13 logo</title>
  <rect width="120" height="120" rx="28" fill="#0A2540" />
  <path
    fill="#F4F6FC"
    d="M20 84V34h14.4l15.2 26.4L64.8 34H79v50H65.6V58.6L49.6 77.8 33.6 58.6V84H20zm57.2 0V45.4L69 50.8v-9.4l12-9h13V84H77.2zm14.6 0V73.4h14c4.6 0 6.6-1.8 6.6-5.2 0-3.4-2-5.2-6.6-5.2H91.8V52.8h13.4c4 0 6.2-1.8 6.2-5 0-3.2-2.2-5-6.2-5H91.6V33H109c9.2 0 14 4.6 14 11.8 0 4.8-2.2 8.4-6.4 10.6 4.8 2.2 7.4 6 7.4 11.2 0 7.6-5.6 12.4-15 12.4H91.8z"
  />
</svg>
